<?xml version="1.0" encoding="UTF-8" standalone="no"?>
<!-- Created with Inkscape (http://www.inkscape.org/) -->

<svg
   xmlns:dc="http://purl.org/dc/elements/1.1/"
   xmlns:cc="http://creativecommons.org/ns#"
   xmlns:rdf="http://www.w3.org/1999/02/22-rdf-syntax-ns#"
   xmlns:svg="http://www.w3.org/2000/svg"
   xmlns="http://www.w3.org/2000/svg"
   version="1.1"
   width="36.84375"
   height="135.3125"
   id="svg2">
  <defs
     id="defs4" />
  <metadata
     id="metadata7">
    <rdf:RDF>
      <cc:Work
         rdf:about="">
        <dc:format>image/svg+xml</dc:format>
        <dc:type
           rdf:resource="http://purl.org/dc/dcmitype/StillImage" />
        <dc:title></dc:title>
      </cc:Work>
    </rdf:RDF>
  </metadata>
  <g
     transform="translate(-161.42897,-167.90485)"
     id="layer1">
    <path
       d="m 14.625,8.96875 c -2.9916,0 -5.40625,2.41465 -5.40625,5.40625 l 0,1.75 2.40625,0 c 1.385,0 2.5,1.115 2.5,2.5 l 0,7.40625 c 0,1.385 -1.115,2.5 -2.5,2.5 l -2.40625,0 0,92.84375 2.03125,0 c 1.385,0 2.5,1.115 2.5,2.5 l 0,7.40625 c 0,1.385 -1.115,2.5 -2.5,2.5 l -2.03125,0 0,4.96875 c 0,2.9916 2.41465,5.40625 5.40625,5.40625 l 25.90625,0 c 2.9916,0 5.40625,-2.41465 5.40625,-5.40625 l 0,-4.59375 -2.40625,0 c -1.385,0 -2.5,-1.115 -2.5,-2.5 l 0,-7.40625 c 0,-1.385 1.115,-2.5 2.5,-2.5 l 2.40625,0 0,-93.03125 -2.21875,0 c -1.385,0 -2.5,-1.115 -2.5,-2.5 l 0,-7.40625 c 0,-1.385 1.115,-2.5 2.5,-2.5 l 2.21875,0 0,-1.9375 c 0,-2.9916 -2.41465,-5.40625 -5.40625,-5.40625 l -25.90625,0 z M 32,30.90625 c 1.611793,0 2.9375,1.294457 2.9375,2.90625 0,1.611793 -1.325707,2.90625 -2.9375,2.90625 -1.611793,0 -2.90625,-1.294457 -2.90625,-2.90625 0,-1.611793 1.294457,-2.90625 2.90625,-2.90625 z M 22.6875,31 c 1.611793,0 2.90625,1.294457 2.90625,2.90625 0,1.611793 -1.294457,2.9375 -2.90625,2.9375 -1.611793,0 -2.90625,-1.325707 -2.90625,-2.9375 C 19.78125,32.294457 21.075707,31 22.6875,31 z m -9.3125,0.09375 c 1.611793,0 2.90625,1.294457 2.90625,2.90625 0,1.611793 -1.294457,2.9375 -2.90625,2.9375 -1.611793,0 -2.9375,-1.325707 -2.9375,-2.9375 0,-1.611793 1.325707,-2.90625 2.9375,-2.90625 z m 27.65625,0 c 1.611793,0 2.9375,1.294457 2.9375,2.90625 0,1.611793 -1.325707,2.9375 -2.9375,2.9375 -1.611793,0 -2.90625,-1.325707 -2.90625,-2.9375 0,-1.611793 1.294457,-2.90625 2.90625,-2.90625 z m -6.9375,80.96875 c 1.611793,0 2.90625,1.29446 2.90625,2.90625 0,1.61179 -1.294457,2.90625 -2.90625,2.90625 -1.611793,0 -2.9375,-1.29446 -2.9375,-2.90625 0,-1.61179 1.325707,-2.90625 2.9375,-2.90625 z m -13.75,0.375 c 1.611793,0 2.90625,1.29446 2.90625,2.90625 0,1.61179 -1.294457,2.90625 -2.90625,2.90625 -1.611793,0 -2.9375,-1.29446 -2.9375,-2.90625 0,-1.61179 1.325707,-2.90625 2.9375,-2.90625 z m 11.84375,10.34375 c 1.611793,0 2.9375,1.29446 2.9375,2.90625 0,1.61179 -1.325707,2.9375 -2.9375,2.9375 -1.611793,0 -2.90625,-1.32571 -2.90625,-2.9375 0,-1.61179 1.294457,-2.90625 2.90625,-2.90625 z m -9.40625,0.1875 c 1.611793,0 2.90625,1.29446 2.90625,2.90625 0,1.61179 -1.294457,2.9375 -2.90625,2.9375 -1.611793,0 -2.90625,-1.32571 -2.90625,-2.9375 0,-1.61179 1.294457,-2.90625 2.90625,-2.90625 z"
       transform="translate(152.27272,158.9986)"
       id="rect3033"
       style="fill:#e31927;fill-opacity:1;stroke:#e92330;stroke-width:0.1;stroke-linecap:butt;stroke-linejoin:miter;stroke-miterlimit:4;stroke-opacity:1;stroke-dasharray:none" />
    <path
       d="m 15.34375,102.90625 c -0.576758,0 -1.03125,0.48574 -1.03125,1.0625 l 0,23.125 c 0,0.57676 0.454492,1.0625 1.03125,1.0625 l 3.25,0 c 0.836234,1.27871 2.264338,2.125 3.90625,2.125 1.641912,0 3.070016,-0.84629 3.90625,-2.125 l 1.90625,0 c 0.851231,1.17267 2.221368,1.9375 3.78125,1.9375 1.561222,0 2.96145,-0.76312 3.8125,-1.9375 l 2.96875,0 c 0.576758,0 1.03125,-0.48574 1.03125,-1.0625 l 0,-23.125 c 0,-0.57676 -0.454492,-1.0625 -1.03125,-1.0625 l -23.53125,0 z"
       transform="translate(152.27272,158.9986)"
       id="rect3856"
       style="fill:none;stroke:#ffffff;stroke-width:0.69999999;stroke-miterlimit:4;stroke-opacity:1;stroke-dasharray:none" />
    <rect
       width="24.665272"
       height="22.594143"
       ry="1.0410802"
       x="15.062761"
       y="78.439331"
       transform="translate(152.27272,158.9986)"
       id="rect3895"
       style="fill:#b0b2a7;fill-opacity:1;stroke:#b0b2a7;stroke-width:0.69999999;stroke-miterlimit:4;stroke-opacity:1;stroke-dasharray:none" />
    <path
       d="m 39.539749,90.771965 a 11.579498,11.579498 0 1 1 -23.158996,0 11.579498,11.579498 0 1 1 23.158996,0 z"
       transform="translate(152.08444,158.05718)"
       id="path3897"
       style="fill:#504e51;fill-opacity:1;stroke:#555356;stroke-width:0.69999999;stroke-miterlimit:4;stroke-opacity:1;stroke-dasharray:none" />
    <rect
       width="9.0376568"
       height="15.8159"
       ry="1.0410802"
       x="11.297071"
       y="58.104603"
       transform="translate(152.27272,158.9986)"
       id="rect3899"
       style="fill:#302c2f;fill-opacity:1;stroke:#302c2f;stroke-width:0.69999999;stroke-miterlimit:4;stroke-opacity:1;stroke-dasharray:none" />
    <rect
       width="9.9596891"
       height="5.2453976"
       ry="0.34527785"
       x="174.50969"
       y="225.79085"
       id="rect3899-9"
       style="fill:#302c2f;fill-opacity:1;stroke:#302c2f;stroke-width:0.42318988;stroke-miterlimit:4;stroke-opacity:1;stroke-dasharray:none" />
    <rect
       width="4.541379"
       height="9.1526651"
       ry="0.60247332"
       x="190.96362"
       y="208.81877"
       id="rect3919"
       style="fill:#302c2f;fill-opacity:1;stroke:#302c2f;stroke-width:0.37747729;stroke-miterlimit:4;stroke-opacity:1;stroke-dasharray:none" />
    <rect
       width="6.2944927"
       height="15.654838"
       ry="1.0304782"
       x="190.21048"
       y="219.63878"
       id="rect3921"
       style="fill:#bcb0a0;fill-opacity:1;stroke:#bcb0a0;stroke-width:0.58120292;stroke-miterlimit:4;stroke-opacity:1;stroke-dasharray:none" />
    <rect
       width="15.583982"
       height="6.2936201"
       ry="0.41427696"
       x="167.05148"
       y="207.34727"
       id="rect3923"
       style="fill:#9d7e63;fill-opacity:1;stroke:#9c8065;stroke-width:0.57984596;stroke-miterlimit:4;stroke-opacity:1;stroke-dasharray:none" />
    <text
       x="-187.48613"
       y="171.49937"
       transform="matrix(0,-1,1,0,0,0)"
       id="text3925"
       xml:space="preserve"
       style="font-size:6px;font-style:normal;font-variant:normal;font-weight:normal;font-stretch:normal;text-align:start;line-height:125%;letter-spacing:0px;word-spacing:0px;writing-mode:lr-tb;text-anchor:start;fill:#ffffff;fill-opacity:1;stroke:#ffffff;stroke-width:0.2;stroke-miterlimit:4;stroke-dasharray:none;font-family:OCRA;-inkscape-font-specification:OCRA"><tspan
         x="-187.48613"
         y="171.49937"
         id="tspan3927"
         style="font-size:6px;font-style:normal;font-variant:normal;font-weight:normal;font-stretch:normal;text-align:start;line-height:125%;writing-mode:lr-tb;text-anchor:start;fill:#ffffff;stroke:#ffffff;stroke-width:0.2;stroke-miterlimit:4;stroke-dasharray:none;font-family:OCRA;-inkscape-font-specification:OCRA">PGND</tspan></text>
    <text
       x="-187.29785"
       y="178.27762"
       transform="matrix(0,-1,1,0,0,0)"
       id="text3929"
       xml:space="preserve"
       style="font-size:6px;font-style:normal;font-variant:normal;font-weight:normal;font-stretch:normal;text-align:start;line-height:125%;letter-spacing:0px;word-spacing:0px;writing-mode:lr-tb;text-anchor:start;fill:#ffffff;fill-opacity:1;stroke:#ffffff;stroke-width:0.2;stroke-miterlimit:4;stroke-dasharray:none;font-family:OCRA;-inkscape-font-specification:OCRA"><tspan
         x="-187.29785"
         y="178.27762"
         id="tspan3931"
         style="font-size:6px;font-style:normal;font-variant:normal;font-weight:normal;font-stretch:normal;text-align:start;line-height:125%;writing-mode:lr-tb;text-anchor:start;fill:#ffffff;stroke:#ffffff;stroke-width:0.2;stroke-miterlimit:4;stroke-dasharray:none;font-family:OCRA;-inkscape-font-specification:OCRA">VIN</tspan></text>
    <text
       x="30.313808"
       y="27.60251"
       transform="translate(152.27272,158.9986)"
       id="text3933"
       xml:space="preserve"
       style="font-size:40px;font-style:normal;font-weight:normal;line-height:125%;letter-spacing:0px;word-spacing:0px;fill:#000000;fill-opacity:1;stroke:none;font-family:Sans"><tspan
         x="30.313808"
         y="27.60251"
         id="tspan3935" /></text>
    <text
       x="-187.67442"
       y="186.18556"
       transform="matrix(0,-1,1,0,0,0)"
       id="text3937"
       xml:space="preserve"
       style="font-size:6px;font-style:normal;font-variant:normal;font-weight:normal;font-stretch:normal;text-align:start;line-height:125%;letter-spacing:0px;word-spacing:0px;writing-mode:lr-tb;text-anchor:start;fill:#ffffff;fill-opacity:1;stroke:#ffffff;stroke-width:0.2;stroke-miterlimit:4;stroke-dasharray:none;font-family:OCRA;-inkscape-font-specification:OCRA"><tspan
         x="-187.67442"
         y="186.18556"
         id="tspan3939"
         style="font-size:6px;font-style:normal;font-variant:normal;font-weight:normal;font-stretch:normal;text-align:start;line-height:125%;writing-mode:lr-tb;text-anchor:start;fill:#ffffff;stroke:#ffffff;stroke-width:0.2;stroke-miterlimit:4;stroke-dasharray:none;font-family:OCRA;-inkscape-font-specification:OCRA">DGND</tspan></text>
    <text
       x="-187.10957"
       y="192.58723"
       transform="matrix(0,-1,1,0,0,0)"
       id="text3941"
       xml:space="preserve"
       style="font-size:6px;font-style:normal;font-variant:normal;font-weight:normal;font-stretch:normal;text-align:start;line-height:125%;letter-spacing:0px;word-spacing:0px;writing-mode:lr-tb;text-anchor:start;fill:#ffffff;fill-opacity:1;stroke:#ffffff;stroke-width:0.2;stroke-miterlimit:4;stroke-dasharray:none;font-family:OCRA;-inkscape-font-specification:OCRA"><tspan
         x="-187.10957"
         y="192.58723"
         id="tspan3943"
         style="font-size:6px;font-style:normal;font-variant:normal;font-weight:normal;font-stretch:normal;text-align:start;line-height:125%;writing-mode:lr-tb;text-anchor:start;fill:#ffffff;stroke:#ffffff;stroke-width:0.2;stroke-miterlimit:4;stroke-dasharray:none;font-family:OCRA;-inkscape-font-specification:OCRA">CTRL</tspan></text>
    <text
       x="162.0118"
       y="202.45634"
       id="text3945"
       xml:space="preserve"
       style="font-size:6px;font-style:normal;font-variant:normal;font-weight:normal;font-stretch:normal;text-align:start;line-height:125%;letter-spacing:0px;word-spacing:0px;writing-mode:lr-tb;text-anchor:start;fill:#ffffff;fill-opacity:1;stroke:#ffffff;stroke-width:0.2;stroke-miterlimit:4;stroke-dasharray:none;font-family:OCRA;-inkscape-font-specification:OCRA"><tspan
         x="162.0118"
         y="202.45634"
         id="tspan3947"
         style="font-size:6px;font-style:normal;font-variant:normal;font-weight:normal;font-stretch:normal;text-align:start;line-height:125%;writing-mode:lr-tb;text-anchor:start;fill:#ffffff;stroke:#ffffff;stroke-width:0.2;stroke-miterlimit:4;stroke-dasharray:none;font-family:OCRA;-inkscape-font-specification:OCRA">V-</tspan></text>
    <text
       x="171.8026"
       y="202.64462"
       id="text3949"
       xml:space="preserve"
       style="font-size:6px;font-style:normal;font-variant:normal;font-weight:normal;font-stretch:normal;text-align:start;line-height:125%;letter-spacing:0px;word-spacing:0px;writing-mode:lr-tb;text-anchor:start;fill:#ffffff;fill-opacity:1;stroke:#ffffff;stroke-width:0.2;stroke-miterlimit:4;stroke-dasharray:none;font-family:OCRA;-inkscape-font-specification:OCRA"><tspan
         x="171.8026"
         y="202.64462"
         id="tspan3951"
         style="font-size:6px;font-style:normal;font-variant:normal;font-weight:normal;font-stretch:normal;text-align:start;line-height:125%;writing-mode:lr-tb;text-anchor:start;fill:#ffffff;stroke:#ffffff;stroke-width:0.2;stroke-miterlimit:4;stroke-dasharray:none;font-family:OCRA;-inkscape-font-specification:OCRA">V+</tspan></text>
    <text
       x="180.84026"
       y="202.8329"
       id="text3953"
       xml:space="preserve"
       style="font-size:6px;font-style:normal;font-variant:normal;font-weight:normal;font-stretch:normal;text-align:start;line-height:125%;letter-spacing:0px;word-spacing:0px;writing-mode:lr-tb;text-anchor:start;fill:#ffffff;fill-opacity:1;stroke:#ffffff;stroke-width:0.2;stroke-miterlimit:4;stroke-dasharray:none;font-family:OCRA;-inkscape-font-specification:OCRA"><tspan
         x="180.84026"
         y="202.8329"
         id="tspan3955"
         style="font-size:6px;font-style:normal;font-variant:normal;font-weight:normal;font-stretch:normal;text-align:start;line-height:125%;writing-mode:lr-tb;text-anchor:start;fill:#ffffff;stroke:#ffffff;stroke-width:0.2;stroke-miterlimit:4;stroke-dasharray:none;font-family:OCRA;-inkscape-font-specification:OCRA">D-</tspan></text>
    <text
       x="189.50134"
       y="203.02118"
       id="text3957"
       xml:space="preserve"
       style="font-size:6px;font-style:normal;font-variant:normal;font-weight:normal;font-stretch:normal;text-align:start;line-height:125%;letter-spacing:0px;word-spacing:0px;writing-mode:lr-tb;text-anchor:start;fill:#ffffff;fill-opacity:1;stroke:#ffffff;stroke-width:0.2;stroke-miterlimit:4;stroke-dasharray:none;font-family:OCRA;-inkscape-font-specification:OCRA"><tspan
         x="189.50134"
         y="203.02118"
         id="tspan3959"
         style="font-size:6px;font-style:normal;font-variant:normal;font-weight:normal;font-stretch:normal;text-align:start;line-height:125%;writing-mode:lr-tb;text-anchor:start;fill:#ffffff;stroke:#ffffff;stroke-width:0.2;stroke-miterlimit:4;stroke-dasharray:none;font-family:OCRA;-inkscape-font-specification:OCRA">D+</tspan></text>
    <text
       x="167.09549"
       y="298.858"
       id="text3961"
       xml:space="preserve"
       style="font-size:6px;font-style:normal;font-variant:normal;font-weight:normal;font-stretch:normal;text-align:start;line-height:125%;letter-spacing:0px;word-spacing:0px;writing-mode:lr-tb;text-anchor:start;fill:#ffffff;fill-opacity:1;stroke:#ffffff;stroke-width:0.2;stroke-miterlimit:4;stroke-dasharray:none;font-family:OCRA;-inkscape-font-specification:OCRA"><tspan
         x="167.09549"
         y="298.858"
         id="tspan3963"
         style="font-size:6px;font-style:normal;font-variant:normal;font-weight:normal;font-stretch:normal;text-align:start;line-height:125%;writing-mode:lr-tb;text-anchor:start;fill:#ffffff;stroke:#ffffff;stroke-width:0.2;stroke-miterlimit:4;stroke-dasharray:none;font-family:OCRA;-inkscape-font-specification:OCRA">-</tspan></text>
    <text
       x="173.87373"
       y="298.858"
       id="text3965"
       xml:space="preserve"
       style="font-size:6px;font-style:normal;font-variant:normal;font-weight:normal;font-stretch:normal;text-align:start;line-height:125%;letter-spacing:0px;word-spacing:0px;writing-mode:lr-tb;text-anchor:start;fill:#ffffff;fill-opacity:1;stroke:#ffffff;stroke-width:0.2;stroke-miterlimit:4;stroke-dasharray:none;font-family:OCRA;-inkscape-font-specification:OCRA"><tspan
         x="173.87373"
         y="298.858"
         id="tspan3967"
         style="font-size:6px;font-style:normal;font-variant:normal;font-weight:normal;font-stretch:normal;text-align:start;line-height:125%;writing-mode:lr-tb;text-anchor:start;fill:#ffffff;stroke:#ffffff;stroke-width:0.2;stroke-miterlimit:4;stroke-dasharray:none;font-family:OCRA;-inkscape-font-specification:OCRA">LED</tspan></text>
    <text
       x="187.43022"
       y="298.858"
       id="text3969"
       xml:space="preserve"
       style="font-size:6px;font-style:normal;font-variant:normal;font-weight:normal;font-stretch:normal;text-align:start;line-height:125%;letter-spacing:0px;word-spacing:0px;writing-mode:lr-tb;text-anchor:start;fill:#ffffff;fill-opacity:1;stroke:#ffffff;stroke-width:0.2;stroke-miterlimit:4;stroke-dasharray:none;font-family:OCRA;-inkscape-font-specification:OCRA"><tspan
         x="187.43022"
         y="298.858"
         id="tspan3971"
         style="font-size:6px;font-style:normal;font-variant:normal;font-weight:normal;font-stretch:normal;text-align:start;line-height:125%;writing-mode:lr-tb;text-anchor:start;fill:#ffffff;stroke:#ffffff;stroke-width:0.2;stroke-miterlimit:4;stroke-dasharray:none;font-family:OCRA;-inkscape-font-specification:OCRA">+</tspan></text>
    <path
       d="m 7.9079497,24.695345 a 3.1066945,2.9184101 0 1 1 -6.2133889,0 3.1066945,2.9184101 0 1 1 6.2133889,0 z"
       transform="translate(161.0524,168.37556)"
       id="Vminus"
       style="fill:none;stroke:#9a916c;stroke-width:1.5;stroke-miterlimit:4;stroke-opacity:1;stroke-dasharray:none">
      <desc
         id="desc3999">Power - / ground</desc>
      <title
         id="title3997">V-</title>
    </path>
    <path
       d="m 7.9079497,24.695345 a 3.1066945,2.9184101 0 1 1 -6.2133889,0 3.1066945,2.9184101 0 1 1 6.2133889,0 z"
       transform="translate(170.21558,168.37556)"
       id="Vplus"
       style="fill:none;stroke:#9a916c;stroke-width:1.5;stroke-miterlimit:4;stroke-opacity:1;stroke-dasharray:none">
      <desc
         id="desc4003">Power +</desc>
      <title
         id="title4001">V+</title>
    </path>
    <path
       d="m 7.9079497,24.695345 a 3.1066945,2.9184101 0 1 1 -6.2133889,0 3.1066945,2.9184101 0 1 1 6.2133889,0 z"
       transform="translate(179.37877,168.37556)"
       id="Dminus"
       style="fill:none;stroke:#9a916c;stroke-width:1.5;stroke-miterlimit:4;stroke-opacity:1;stroke-dasharray:none">
      <desc
         id="desc4007">PWM Control signal - / ground</desc>
      <title
         id="title4005">D-</title>
    </path>
    <path
       d="m 7.9079497,24.695345 a 3.1066945,2.9184101 0 1 1 -6.2133889,0 3.1066945,2.9184101 0 1 1 6.2133889,0 z"
       transform="translate(188.54195,168.37556)"
       id="Dplus"
       style="fill:none;stroke:#9a916c;stroke-width:1.5;stroke-miterlimit:4;stroke-opacity:1;stroke-dasharray:none">
      <desc
         id="desc4011">PWM control signal +</desc>
      <title
         id="title4009">D+</title>
    </path>
    <path
       d="m 7.9079497,24.695345 a 3.1066945,2.9184101 0 1 1 -6.2133889,0 3.1066945,2.9184101 0 1 1 6.2133889,0 z"
       transform="translate(167.64237,249.3379)"
       id="ledminusterm"
       style="fill:none;stroke:#9a916c;stroke-width:1.5;stroke-miterlimit:4;stroke-opacity:1;stroke-dasharray:none">
      <desc
         id="desc4015">LED minus for Terminal Block</desc>
      <title
         id="title4013">LED-</title>
    </path>
    <path
       d="m 7.9079497,24.695345 a 3.1066945,2.9184101 0 1 1 -6.2133889,0 3.1066945,2.9184101 0 1 1 6.2133889,0 z"
       transform="translate(181.19886,249.3379)"
       id="ledplusterm"
       style="fill:none;stroke:#9a916c;stroke-width:1.5;stroke-miterlimit:4;stroke-opacity:1;stroke-dasharray:none">
      <desc
         id="desc4019">LED minus for Terminal Block</desc>
      <title
         id="title4017">LED+</title>
    </path>
    <path
       d="m 7.9079497,24.695345 a 3.1066945,2.9184101 0 1 1 -6.2133889,0 3.1066945,2.9184101 0 1 1 6.2133889,0 z"
       transform="translate(170.09007,259.97598)"
       id="ledminusbb"
       style="fill:none;stroke:#9a916c;stroke-width:1.5;stroke-miterlimit:4;stroke-opacity:1;stroke-dasharray:none">
      <desc
         id="desc4023">LED minus for Breadboard</desc>
      <title
         id="title4021">LED-</title>
    </path>
    <path
       d="m 7.9079497,24.695345 a 3.1066945,2.9184101 0 1 1 -6.2133889,0 3.1066945,2.9184101 0 1 1 6.2133889,0 z"
       transform="translate(179.69258,259.97598)"
       id="ledplusbb"
       style="fill:none;stroke:#9a916c;stroke-width:1.5;stroke-miterlimit:4;stroke-opacity:1;stroke-dasharray:none">
      <desc
         id="desc4027">LED plus for Breadboard</desc>
      <title
         id="title4025">LED+</title>
    </path>
  </g>
</svg>
